# MagicaVoxel @ Ephtracy

# group
g character_test2

# material
mtllib character_test2.mtl
usemtl palette

# normals
vn -1 0 0
vn 1 0 0
vn 0 -1 0
vn 0 1 0
vn 0 0 -1
vn 0 0 1

# texcoords
vt 0.0332031 0.5
vt 0.232422 0.5
vt 0.533203 0.5
vt 0.720703 0.5
vt 0.775391 0.5
vt 0.841797 0.5
vt 0.876953 0.5
vt 0.958984 0.5

# verts
v 0 19 66
v 0 21 66
v 0 18 67
v 0 19 67
v 0 21 67
v 0 22 67
v 0 18 68
v 0 19 68
v 0 21 68
v 0 22 68
v 0 19 69
v 0 21 69
v 2 18 66
v 2 19 66
v 2 21 66
v 2 22 66
v 2 18 67
v 2 19 67
v 2 21 67
v 2 22 67
v 2 18 68
v 2 19 68
v 2 21 68
v 2 22 68
v 2 18 69
v 2 19 69
v 2 21 69
v 2 22 69
v 13 16 52
v 13 24 52
v 13 16 56
v 13 24 56
v 13 16 57
v 13 24 57
v 13 18 64
v 13 22 64
v 13 17 65
v 13 18 65
v 13 22 65
v 13 23 65
v 13 18 66
v 13 22 66
v 13 16 69
v 13 17 69
v 13 18 69
v 13 22 69
v 13 23 69
v 13 24 69
v 13 17 70
v 13 23 70
v 14 18 40
v 14 22 40
v 14 18 41
v 14 22 41
v 14 18 43
v 14 22 43
v 14 18 45
v 14 22 45
v 14 18 49
v 14 22 49
v 14 18 52
v 14 22 52
v 14 16 69
v 14 17 69
v 14 23 69
v 14 24 69
v 14 16 70
v 14 17 70
v 14 23 70
v 14 24 70
v 15 17 72
v 15 23 72
v 15 16 73
v 15 17 73
v 15 23 73
v 15 24 73
v 15 16 79
v 15 17 79
v 15 23 79
v 15 24 79
v 15 17 80
v 15 23 80
v 16 17 70
v 16 23 70
v 16 16 72
v 16 17 72
v 16 23 72
v 16 24 72
v 16 16 73
v 16 17 73
v 16 23 73
v 16 24 73
v 16 16 79
v 16 17 79
v 16 23 79
v 16 24 79
v 16 16 80
v 16 17 80
v 16 23 80
v 16 24 80
v 21 24 73
v 21 28 73
v 21 29 73
v 21 24 74
v 21 28 74
v 21 29 74
v 22 18 40
v 22 22 40
v 22 18 41
v 22 22 41
v 22 18 43
v 22 22 43
v 22 18 45
v 22 22 45
v 22 18 49
v 22 22 49
v 22 18 52
v 22 22 52
v 18 18 40
v 18 22 40
v 18 18 41
v 18 22 41
v 18 18 43
v 18 22 43
v 18 18 45
v 18 22 45
v 18 18 49
v 18 22 49
v 18 18 52
v 18 22 52
v 22 24 73
v 22 28 73
v 22 29 73
v 22 24 74
v 22 28 74
v 22 29 74
v 24 17 70
v 24 23 70
v 24 16 72
v 24 17 72
v 24 23 72
v 24 24 72
v 24 16 73
v 24 17 73
v 24 23 73
v 24 24 73
v 24 16 79
v 24 17 79
v 24 23 79
v 24 24 79
v 24 16 80
v 24 17 80
v 24 23 80
v 24 24 80
v 25 17 72
v 25 23 72
v 25 16 73
v 25 17 73
v 25 23 73
v 25 24 73
v 25 16 79
v 25 17 79
v 25 23 79
v 25 24 79
v 25 17 80
v 25 23 80
v 26 18 40
v 26 22 40
v 26 18 41
v 26 22 41
v 26 18 43
v 26 22 43
v 26 18 45
v 26 22 45
v 26 18 49
v 26 22 49
v 26 18 52
v 26 22 52
v 26 16 69
v 26 17 69
v 26 23 69
v 26 24 69
v 26 16 70
v 26 17 70
v 26 23 70
v 26 24 70
v 27 16 52
v 27 24 52
v 27 16 56
v 27 24 56
v 27 16 57
v 27 24 57
v 27 18 64
v 27 22 64
v 27 17 65
v 27 18 65
v 27 22 65
v 27 23 65
v 27 18 66
v 27 22 66
v 27 16 69
v 27 17 69
v 27 18 69
v 27 22 69
v 27 23 69
v 27 24 69
v 27 17 70
v 27 23 70
v 38 18 66
v 38 19 66
v 38 21 66
v 38 22 66
v 38 18 67
v 38 19 67
v 38 21 67
v 38 22 67
v 38 18 68
v 38 19 68
v 38 21 68
v 38 22 68
v 38 18 69
v 38 19 69
v 38 21 69
v 38 22 69
v 40 19 66
v 40 21 66
v 40 18 67
v 40 19 67
v 40 21 67
v 40 22 67
v 40 18 68
v 40 19 68
v 40 21 68
v 40 22 68
v 40 19 69
v 40 21 69
v 13 16 52
v 13 16 56
v 13 16 57
v 13 16 69
v 14 16 69
v 14 16 70
v 15 16 73
v 15 16 79
v 16 16 68
v 16 16 70
v 16 16 72
v 16 16 73
v 16 16 79
v 16 16 80
v 24 16 68
v 24 16 70
v 24 16 72
v 24 16 73
v 24 16 79
v 24 16 80
v 25 16 73
v 25 16 79
v 26 16 69
v 26 16 70
v 27 16 52
v 27 16 56
v 27 16 57
v 27 16 69
v 13 17 69
v 13 17 70
v 14 17 69
v 14 17 70
v 15 17 72
v 15 17 73
v 15 17 79
v 15 17 80
v 16 17 70
v 16 17 72
v 16 17 73
v 16 17 79
v 16 17 80
v 24 17 70
v 24 17 72
v 24 17 73
v 24 17 79
v 24 17 80
v 25 17 72
v 25 17 73
v 25 17 79
v 25 17 80
v 26 17 69
v 26 17 70
v 27 17 69
v 27 17 70
v 0 18 67
v 0 18 68
v 2 18 66
v 2 18 67
v 2 18 68
v 2 18 69
v 13 18 66
v 13 18 69
v 14 18 40
v 14 18 41
v 14 18 43
v 14 18 45
v 14 18 49
v 14 18 52
v 18 18 40
v 18 18 41
v 18 18 43
v 18 18 45
v 18 18 49
v 18 18 52
v 22 18 40
v 22 18 41
v 22 18 43
v 22 18 45
v 22 18 49
v 22 18 52
v 26 18 40
v 26 18 41
v 26 18 43
v 26 18 45
v 26 18 49
v 26 18 52
v 27 18 66
v 27 18 69
v 38 18 66
v 38 18 67
v 38 18 68
v 38 18 69
v 40 18 67
v 40 18 68
v 0 19 66
v 0 19 67
v 0 19 68
v 0 19 69
v 2 19 66
v 2 19 67
v 2 19 68
v 2 19 69
v 38 19 66
v 38 19 67
v 38 19 68
v 38 19 69
v 40 19 66
v 40 19 67
v 40 19 68
v 40 19 69
v 0 21 66
v 0 21 67
v 0 21 68
v 0 21 69
v 2 21 66
v 2 21 67
v 2 21 68
v 2 21 69
v 38 21 66
v 38 21 67
v 38 21 68
v 38 21 69
v 40 21 66
v 40 21 67
v 40 21 68
v 40 21 69
v 0 22 67
v 0 22 68
v 2 22 66
v 2 22 67
v 2 22 68
v 2 22 69
v 13 22 66
v 13 22 69
v 14 22 40
v 14 22 41
v 14 22 43
v 14 22 45
v 14 22 49
v 14 22 52
v 18 22 40
v 18 22 41
v 18 22 43
v 18 22 45
v 18 22 49
v 18 22 52
v 22 22 40
v 22 22 41
v 22 22 43
v 22 22 45
v 22 22 49
v 22 22 52
v 26 22 40
v 26 22 41
v 26 22 43
v 26 22 45
v 26 22 49
v 26 22 52
v 27 22 66
v 27 22 69
v 38 22 66
v 38 22 67
v 38 22 68
v 38 22 69
v 40 22 67
v 40 22 68
v 13 23 69
v 13 23 70
v 14 23 69
v 14 23 70
v 15 23 72
v 15 23 73
v 15 23 79
v 15 23 80
v 16 23 70
v 16 23 72
v 16 23 73
v 16 23 79
v 16 23 80
v 24 23 70
v 24 23 72
v 24 23 73
v 24 23 79
v 24 23 80
v 25 23 72
v 25 23 73
v 25 23 79
v 25 23 80
v 26 23 69
v 26 23 70
v 27 23 69
v 27 23 70
v 13 24 52
v 13 24 56
v 13 24 57
v 13 24 69
v 14 24 69
v 14 24 70
v 15 24 73
v 15 24 79
v 16 24 68
v 16 24 70
v 16 24 72
v 16 24 73
v 16 24 77
v 16 24 78
v 16 24 79
v 16 24 80
v 17 24 74
v 17 24 75
v 17 24 76
v 17 24 77
v 18 24 73
v 18 24 74
v 18 24 75
v 18 24 76
v 18 24 77
v 19 24 77
v 19 24 78
v 21 24 73
v 21 24 74
v 21 24 77
v 21 24 78
v 22 24 73
v 22 24 74
v 22 24 75
v 22 24 76
v 22 24 77
v 23 24 74
v 23 24 75
v 23 24 76
v 23 24 77
v 24 24 68
v 24 24 70
v 24 24 72
v 24 24 73
v 24 24 77
v 24 24 78
v 24 24 79
v 24 24 80
v 25 24 73
v 25 24 79
v 26 24 69
v 26 24 70
v 27 24 52
v 27 24 56
v 27 24 57
v 27 24 69
v 21 29 73
v 21 29 74
v 22 29 73
v 22 29 74
v 14 18 40
v 18 18 40
v 22 18 40
v 26 18 40
v 14 22 40
v 18 22 40
v 22 22 40
v 26 22 40
v 13 16 52
v 27 16 52
v 14 18 52
v 18 18 52
v 22 18 52
v 26 18 52
v 14 22 52
v 18 22 52
v 22 22 52
v 26 22 52
v 13 24 52
v 27 24 52
v 2 18 66
v 13 18 66
v 27 18 66
v 38 18 66
v 0 19 66
v 2 19 66
v 38 19 66
v 40 19 66
v 0 21 66
v 2 21 66
v 38 21 66
v 40 21 66
v 2 22 66
v 13 22 66
v 27 22 66
v 38 22 66
v 0 18 67
v 2 18 67
v 38 18 67
v 40 18 67
v 0 19 67
v 2 19 67
v 38 19 67
v 40 19 67
v 0 21 67
v 2 21 67
v 38 21 67
v 40 21 67
v 0 22 67
v 2 22 67
v 38 22 67
v 40 22 67
v 16 16 72
v 24 16 72
v 15 17 72
v 16 17 72
v 24 17 72
v 25 17 72
v 15 23 72
v 16 23 72
v 24 23 72
v 25 23 72
v 16 24 72
v 24 24 72
v 15 16 73
v 16 16 73
v 24 16 73
v 25 16 73
v 15 17 73
v 16 17 73
v 24 17 73
v 25 17 73
v 15 23 73
v 16 23 73
v 24 23 73
v 25 23 73
v 15 24 73
v 16 24 73
v 21 24 73
v 22 24 73
v 24 24 73
v 25 24 73
v 21 28 73
v 22 28 73
v 21 29 73
v 22 29 73
v 0 18 68
v 2 18 68
v 38 18 68
v 40 18 68
v 0 19 68
v 2 19 68
v 38 19 68
v 40 19 68
v 0 21 68
v 2 21 68
v 38 21 68
v 40 21 68
v 0 22 68
v 2 22 68
v 38 22 68
v 40 22 68
v 13 16 69
v 14 16 69
v 26 16 69
v 27 16 69
v 13 17 69
v 14 17 69
v 26 17 69
v 27 17 69
v 2 18 69
v 13 18 69
v 27 18 69
v 38 18 69
v 0 19 69
v 2 19 69
v 38 19 69
v 40 19 69
v 0 21 69
v 2 21 69
v 38 21 69
v 40 21 69
v 2 22 69
v 13 22 69
v 27 22 69
v 38 22 69
v 13 23 69
v 14 23 69
v 26 23 69
v 27 23 69
v 13 24 69
v 14 24 69
v 26 24 69
v 27 24 69
v 14 16 70
v 16 16 70
v 24 16 70
v 26 16 70
v 13 17 70
v 14 17 70
v 16 17 70
v 24 17 70
v 26 17 70
v 27 17 70
v 13 23 70
v 14 23 70
v 16 23 70
v 24 23 70
v 26 23 70
v 27 23 70
v 14 24 70
v 16 24 70
v 24 24 70
v 26 24 70
v 21 24 74
v 22 24 74
v 21 28 74
v 22 28 74
v 21 29 74
v 22 29 74
v 15 16 79
v 16 16 79
v 24 16 79
v 25 16 79
v 15 17 79
v 16 17 79
v 24 17 79
v 25 17 79
v 15 23 79
v 16 23 79
v 24 23 79
v 25 23 79
v 15 24 79
v 16 24 79
v 24 24 79
v 25 24 79
v 16 16 80
v 24 16 80
v 15 17 80
v 16 17 80
v 24 17 80
v 25 17 80
v 15 23 80
v 16 23 80
v 24 23 80
v 25 23 80
v 16 24 80
v 24 24 80

# faces
f 4/1/1 2/1/1 1/1/1
f 5/1/1 2/1/1 4/1/1
f 7/1/1 4/1/1 3/1/1
f 7/1/1 6/1/1 5/1/1
f 7/1/1 5/1/1 4/1/1
f 8/1/1 6/1/1 7/1/1
f 9/1/1 6/1/1 8/1/1
f 10/1/1 6/1/1 9/1/1
f 11/1/1 9/1/1 8/1/1
f 12/1/1 9/1/1 11/1/1
f 17/1/1 14/1/1 13/1/1
f 18/1/1 14/1/1 17/1/1
f 19/1/1 16/1/1 15/1/1
f 20/1/1 16/1/1 19/1/1
f 25/1/1 22/1/1 21/1/1
f 26/1/1 22/1/1 25/1/1
f 27/1/1 24/1/1 23/1/1
f 28/1/1 24/1/1 27/1/1
f 31/5/1 30/5/1 29/5/1
f 32/5/1 30/5/1 31/5/1
f 33/3/1 32/3/1 31/3/1
f 34/3/1 32/3/1 33/3/1
f 35/8/1 34/8/1 33/8/1
f 36/8/1 34/8/1 35/8/1
f 37/8/1 35/8/1 33/8/1
f 38/1/1 36/1/1 35/1/1
f 38/8/1 35/8/1 37/8/1
f 39/8/1 34/8/1 36/8/1
f 39/1/1 36/1/1 38/1/1
f 40/8/1 34/8/1 39/8/1
f 41/1/1 38/1/1 37/1/1
f 41/1/1 39/1/1 38/1/1
f 41/1/1 40/1/1 39/1/1
f 42/1/1 40/1/1 41/1/1
f 43/8/1 37/8/1 33/8/1
f 44/1/1 41/1/1 37/1/1
f 44/8/1 37/8/1 43/8/1
f 45/1/1 41/1/1 44/1/1
f 46/1/1 40/1/1 42/1/1
f 47/8/1 34/8/1 40/8/1
f 47/1/1 40/1/1 46/1/1
f 48/8/1 34/8/1 47/8/1
f 49/1/1 46/1/1 45/1/1
f 49/1/1 45/1/1 44/1/1
f 49/1/1 47/1/1 46/1/1
f 50/1/1 47/1/1 49/1/1
f 53/7/1 52/7/1 51/7/1
f 54/7/1 52/7/1 53/7/1
f 55/3/1 54/3/1 53/3/1
f 56/3/1 54/3/1 55/3/1
f 57/4/1 56/4/1 55/4/1
f 58/4/1 56/4/1 57/4/1
f 59/1/1 58/1/1 57/1/1
f 60/1/1 58/1/1 59/1/1
f 61/5/1 60/5/1 59/5/1
f 62/5/1 60/5/1 61/5/1
f 67/8/1 64/8/1 63/8/1
f 68/8/1 64/8/1 67/8/1
f 69/8/1 66/8/1 65/8/1
f 70/8/1 66/8/1 69/8/1
f 74/1/1 72/1/1 71/1/1
f 75/1/1 72/1/1 74/1/1
f 77/1/1 74/1/1 73/1/1
f 77/1/1 76/1/1 75/1/1
f 77/1/1 75/1/1 74/1/1
f 78/1/1 76/1/1 77/1/1
f 79/1/1 76/1/1 78/1/1
f 80/1/1 76/1/1 79/1/1
f 81/1/1 79/1/1 78/1/1
f 82/1/1 79/1/1 81/1/1
f 86/1/1 84/1/1 83/1/1
f 87/1/1 84/1/1 86/1/1
f 89/1/1 86/1/1 85/1/1
f 90/1/1 86/1/1 89/1/1
f 91/1/1 88/1/1 87/1/1
f 92/1/1 88/1/1 91/1/1
f 97/1/1 94/1/1 93/1/1
f 98/1/1 94/1/1 97/1/1
f 99/1/1 96/1/1 95/1/1
f 100/1/1 96/1/1 99/1/1
f 104/2/1 102/2/1 101/2/1
f 105/6/1 103/6/1 102/6/1
f 105/2/1 102/2/1 104/2/1
f 106/6/1 103/6/1 105/6/1
f 109/7/1 108/7/1 107/7/1
f 110/7/1 108/7/1 109/7/1
f 111/3/1 110/3/1 109/3/1
f 112/3/1 110/3/1 111/3/1
f 113/4/1 112/4/1 111/4/1
f 114/4/1 112/4/1 113/4/1
f 115/1/1 114/1/1 113/1/1
f 116/1/1 114/1/1 115/1/1
f 117/5/1 116/5/1 115/5/1
f 118/5/1 116/5/1 117/5/1
f 119/7/2 120/7/2 121/7/2
f 121/7/2 120/7/2 122/7/2
f 121/3/2 122/3/2 123/3/2
f 123/3/2 122/3/2 124/3/2
f 123/4/2 124/4/2 125/4/2
f 125/4/2 124/4/2 126/4/2
f 125/1/2 126/1/2 127/1/2
f 127/1/2 126/1/2 128/1/2
f 127/5/2 128/5/2 129/5/2
f 129/5/2 128/5/2 130/5/2
f 131/2/2 132/2/2 134/2/2
f 132/6/2 133/6/2 135/6/2
f 134/2/2 132/2/2 135/2/2
f 135/6/2 133/6/2 136/6/2
f 137/1/2 138/1/2 140/1/2
f 140/1/2 138/1/2 141/1/2
f 139/1/2 140/1/2 143/1/2
f 143/1/2 140/1/2 144/1/2
f 141/1/2 142/1/2 145/1/2
f 145/1/2 142/1/2 146/1/2
f 147/1/2 148/1/2 151/1/2
f 151/1/2 148/1/2 152/1/2
f 149/1/2 150/1/2 153/1/2
f 153/1/2 150/1/2 154/1/2
f 155/1/2 156/1/2 158/1/2
f 158/1/2 156/1/2 159/1/2
f 157/1/2 158/1/2 161/1/2
f 159/1/2 160/1/2 161/1/2
f 158/1/2 159/1/2 161/1/2
f 161/1/2 160/1/2 162/1/2
f 162/1/2 160/1/2 163/1/2
f 163/1/2 160/1/2 164/1/2
f 162/1/2 163/1/2 165/1/2
f 165/1/2 163/1/2 166/1/2
f 167/7/2 168/7/2 169/7/2
f 169/7/2 168/7/2 170/7/2
f 169/3/2 170/3/2 171/3/2
f 171/3/2 170/3/2 172/3/2
f 171/4/2 172/4/2 173/4/2
f 173/4/2 172/4/2 174/4/2
f 173/1/2 174/1/2 175/1/2
f 175/1/2 174/1/2 176/1/2
f 175/5/2 176/5/2 177/5/2
f 177/5/2 176/5/2 178/5/2
f 179/8/2 180/8/2 183/8/2
f 183/8/2 180/8/2 184/8/2
f 181/8/2 182/8/2 185/8/2
f 185/8/2 182/8/2 186/8/2
f 187/5/2 188/5/2 189/5/2
f 189/5/2 188/5/2 190/5/2
f 189/3/2 190/3/2 191/3/2
f 191/3/2 190/3/2 192/3/2
f 191/8/2 192/8/2 193/8/2
f 193/8/2 192/8/2 194/8/2
f 191/8/2 193/8/2 195/8/2
f 193/1/2 194/1/2 196/1/2
f 195/8/2 193/8/2 196/8/2
f 194/8/2 192/8/2 197/8/2
f 196/1/2 194/1/2 197/1/2
f 197/8/2 192/8/2 198/8/2
f 195/1/2 196/1/2 199/1/2
f 196/1/2 197/1/2 199/1/2
f 197/1/2 198/1/2 199/1/2
f 199/1/2 198/1/2 200/1/2
f 191/8/2 195/8/2 201/8/2
f 195/1/2 199/1/2 202/1/2
f 201/8/2 195/8/2 202/8/2
f 202/1/2 199/1/2 203/1/2
f 200/1/2 198/1/2 204/1/2
f 198/8/2 192/8/2 205/8/2
f 204/1/2 198/1/2 205/1/2
f 205/8/2 192/8/2 206/8/2
f 203/1/2 204/1/2 207/1/2
f 202/1/2 203/1/2 207/1/2
f 204/1/2 205/1/2 207/1/2
f 207/1/2 205/1/2 208/1/2
f 209/1/2 210/1/2 213/1/2
f 213/1/2 210/1/2 214/1/2
f 211/1/2 212/1/2 215/1/2
f 215/1/2 212/1/2 216/1/2
f 217/1/2 218/1/2 221/1/2
f 221/1/2 218/1/2 222/1/2
f 219/1/2 220/1/2 223/1/2
f 223/1/2 220/1/2 224/1/2
f 225/1/2 226/1/2 228/1/2
f 228/1/2 226/1/2 229/1/2
f 227/1/2 228/1/2 231/1/2
f 229/1/2 230/1/2 231/1/2
f 228/1/2 229/1/2 231/1/2
f 231/1/2 230/1/2 232/1/2
f 232/1/2 230/1/2 233/1/2
f 233/1/2 230/1/2 234/1/2
f 232/1/2 233/1/2 235/1/2
f 235/1/2 233/1/2 236/1/2
f 241/8/3 240/8/3 239/8/3
f 245/8/3 241/8/3 239/8/3
f 245/8/3 242/8/3 241/8/3
f 246/8/3 242/8/3 245/8/3
f 248/1/3 244/1/3 243/1/3
f 249/1/3 244/1/3 248/1/3
f 251/1/3 246/1/3 245/1/3
f 251/8/3 245/8/3 239/8/3
f 252/1/3 246/1/3 251/1/3
f 253/1/3 250/1/3 249/1/3
f 253/1/3 249/1/3 248/1/3
f 253/1/3 248/1/3 247/1/3
f 254/1/3 250/1/3 253/1/3
f 255/1/3 250/1/3 254/1/3
f 256/1/3 250/1/3 255/1/3
f 257/1/3 255/1/3 254/1/3
f 258/1/3 255/1/3 257/1/3
f 259/8/3 252/8/3 251/8/3
f 260/8/3 252/8/3 259/8/3
f 261/5/3 238/5/3 237/5/3
f 262/3/3 239/3/3 238/3/3
f 262/5/3 238/5/3 261/5/3
f 263/8/3 251/8/3 239/8/3
f 263/3/3 239/3/3 262/3/3
f 263/8/3 259/8/3 251/8/3
f 264/8/3 259/8/3 263/8/3
f 267/1/3 266/1/3 265/1/3
f 268/1/3 266/1/3 267/1/3
f 274/1/3 270/1/3 269/1/3
f 275/1/3 270/1/3 274/1/3
f 276/1/3 272/1/3 271/1/3
f 277/1/3 272/1/3 276/1/3
f 278/1/3 274/1/3 273/1/3
f 279/1/3 274/1/3 278/1/3
f 283/1/3 280/1/3 279/1/3
f 284/1/3 280/1/3 283/1/3
f 285/1/3 282/1/3 281/1/3
f 286/1/3 282/1/3 285/1/3
f 289/1/3 288/1/3 287/1/3
f 290/1/3 288/1/3 289/1/3
f 294/1/3 292/1/3 291/1/3
f 295/1/3 292/1/3 294/1/3
f 297/1/3 294/1/3 293/1/3
f 297/1/3 296/1/3 295/1/3
f 297/1/3 295/1/3 294/1/3
f 298/1/3 296/1/3 297/1/3
f 305/7/3 300/7/3 299/7/3
f 306/3/3 301/3/3 300/3/3
f 306/7/3 300/7/3 305/7/3
f 307/4/3 302/4/3 301/4/3
f 307/3/3 301/3/3 306/3/3
f 308/1/3 303/1/3 302/1/3
f 308/4/3 302/4/3 307/4/3
f 309/5/3 304/5/3 303/5/3
f 309/1/3 303/1/3 308/1/3
f 310/5/3 304/5/3 309/5/3
f 317/7/3 312/7/3 311/7/3
f 318/3/3 313/3/3 312/3/3
f 318/7/3 312/7/3 317/7/3
f 319/4/3 314/4/3 313/4/3
f 319/3/3 313/3/3 318/3/3
f 320/1/3 315/1/3 314/1/3
f 320/4/3 314/4/3 319/4/3
f 321/5/3 316/5/3 315/5/3
f 321/1/3 315/1/3 320/1/3
f 322/5/3 316/5/3 321/5/3
f 325/1/3 324/1/3 323/1/3
f 326/1/3 324/1/3 325/1/3
f 327/1/3 324/1/3 326/1/3
f 328/1/3 324/1/3 327/1/3
f 329/1/3 327/1/3 326/1/3
f 330/1/3 327/1/3 329/1/3
f 335/1/3 332/1/3 331/1/3
f 336/1/3 332/1/3 335/1/3
f 337/1/3 334/1/3 333/1/3
f 338/1/3 334/1/3 337/1/3
f 343/1/3 340/1/3 339/1/3
f 344/1/3 340/1/3 343/1/3
f 345/1/3 342/1/3 341/1/3
f 346/1/3 342/1/3 345/1/3
f 347/1/4 348/1/4 351/1/4
f 351/1/4 348/1/4 352/1/4
f 349/1/4 350/1/4 353/1/4
f 353/1/4 350/1/4 354/1/4
f 355/1/4 356/1/4 359/1/4
f 359/1/4 356/1/4 360/1/4
f 357/1/4 358/1/4 361/1/4
f 361/1/4 358/1/4 362/1/4
f 363/1/4 364/1/4 366/1/4
f 366/1/4 364/1/4 367/1/4
f 365/1/4 366/1/4 369/1/4
f 367/1/4 368/1/4 369/1/4
f 366/1/4 367/1/4 369/1/4
f 369/1/4 368/1/4 370/1/4
f 371/7/4 372/7/4 377/7/4
f 372/3/4 373/3/4 378/3/4
f 377/7/4 372/7/4 378/7/4
f 373/4/4 374/4/4 379/4/4
f 378/3/4 373/3/4 379/3/4
f 374/1/4 375/1/4 380/1/4
f 379/4/4 374/4/4 380/4/4
f 375/5/4 376/5/4 381/5/4
f 380/1/4 375/1/4 381/1/4
f 381/5/4 376/5/4 382/5/4
f 383/7/4 384/7/4 389/7/4
f 384/3/4 385/3/4 390/3/4
f 389/7/4 384/7/4 390/7/4
f 385/4/4 386/4/4 391/4/4
f 390/3/4 385/3/4 391/3/4
f 386/1/4 387/1/4 392/1/4
f 391/4/4 386/4/4 392/4/4
f 387/5/4 388/5/4 393/5/4
f 392/1/4 387/1/4 393/1/4
f 393/5/4 388/5/4 394/5/4
f 395/1/4 396/1/4 397/1/4
f 397/1/4 396/1/4 398/1/4
f 398/1/4 396/1/4 399/1/4
f 399/1/4 396/1/4 400/1/4
f 398/1/4 399/1/4 401/1/4
f 401/1/4 399/1/4 402/1/4
f 403/1/4 404/1/4 405/1/4
f 405/1/4 404/1/4 406/1/4
f 407/1/4 408/1/4 412/1/4
f 412/1/4 408/1/4 413/1/4
f 409/1/4 410/1/4 414/1/4
f 414/1/4 410/1/4 415/1/4
f 411/1/4 412/1/4 416/1/4
f 416/1/4 412/1/4 417/1/4
f 417/1/4 418/1/4 421/1/4
f 421/1/4 418/1/4 422/1/4
f 419/1/4 420/1/4 423/1/4
f 423/1/4 420/1/4 424/1/4
f 425/1/4 426/1/4 427/1/4
f 427/1/4 426/1/4 428/1/4
f 431/8/4 432/8/4 433/8/4
f 431/8/4 433/8/4 437/8/4
f 433/8/4 434/8/4 437/8/4
f 437/8/4 434/8/4 438/8/4
f 435/1/4 436/1/4 440/1/4
f 440/1/4 436/1/4 441/1/4
f 441/1/4 436/1/4 442/1/4
f 442/1/4 436/1/4 443/1/4
f 439/1/4 440/1/4 445/1/4
f 440/1/4 441/1/4 445/1/4
f 445/1/4 441/1/4 446/1/4
f 446/1/4 441/1/4 447/1/4
f 441/7/4 442/7/4 448/7/4
f 447/1/4 441/1/4 448/1/4
f 439/1/4 445/1/4 449/1/4
f 445/7/4 446/7/4 450/7/4
f 449/1/4 445/1/4 450/1/4
f 446/1/4 447/1/4 451/1/4
f 450/7/4 446/7/4 451/7/4
f 447/7/4 448/7/4 452/7/4
f 451/1/4 447/1/4 452/1/4
f 448/7/4 442/7/4 453/7/4
f 452/7/4 448/7/4 453/7/4
f 451/1/4 452/1/4 454/1/4
f 453/7/4 442/7/4 454/7/4
f 452/1/4 453/1/4 454/1/4
f 450/1/4 451/1/4 454/1/4
f 443/1/4 444/1/4 455/1/4
f 454/7/4 442/7/4 455/7/4
f 442/1/4 443/1/4 455/1/4
f 439/1/4 449/1/4 456/1/4
f 449/7/4 450/7/4 456/7/4
f 450/1/4 454/1/4 457/1/4
f 456/7/4 450/7/4 457/7/4
f 454/1/4 455/1/4 457/1/4
f 457/1/4 455/1/4 458/1/4
f 455/1/4 444/1/4 459/1/4
f 458/1/4 455/1/4 459/1/4
f 439/1/4 456/1/4 460/1/4
f 457/1/4 458/1/4 461/1/4
f 461/1/4 458/1/4 462/1/4
f 462/1/4 458/1/4 463/1/4
f 458/7/4 459/7/4 464/7/4
f 463/1/4 458/1/4 464/1/4
f 460/1/4 461/1/4 465/1/4
f 461/7/4 462/7/4 465/7/4
f 462/1/4 463/1/4 466/1/4
f 465/7/4 462/7/4 466/7/4
f 463/7/4 464/7/4 467/7/4
f 466/1/4 463/1/4 467/1/4
f 464/7/4 459/7/4 468/7/4
f 467/7/4 464/7/4 468/7/4
f 437/1/4 438/1/4 469/1/4
f 431/8/4 437/8/4 469/8/4
f 469/1/4 438/1/4 470/1/4
f 467/1/4 468/1/4 471/1/4
f 439/1/4 460/1/4 471/1/4
f 460/1/4 465/1/4 471/1/4
f 465/1/4 466/1/4 471/1/4
f 466/1/4 467/1/4 471/1/4
f 471/1/4 468/1/4 472/1/4
f 468/7/4 459/7/4 473/7/4
f 472/1/4 468/1/4 473/1/4
f 459/1/4 444/1/4 474/1/4
f 473/7/4 459/7/4 474/7/4
f 474/1/4 444/1/4 475/1/4
f 475/1/4 444/1/4 476/1/4
f 472/1/4 473/1/4 477/1/4
f 474/1/4 475/1/4 477/1/4
f 473/1/4 474/1/4 477/1/4
f 477/1/4 475/1/4 478/1/4
f 469/8/4 470/8/4 479/8/4
f 479/8/4 470/8/4 480/8/4
f 429/5/4 430/5/4 481/5/4
f 430/3/4 431/3/4 482/3/4
f 481/5/4 430/5/4 482/5/4
f 431/8/4 469/8/4 483/8/4
f 482/3/4 431/3/4 483/3/4
f 469/8/4 479/8/4 483/8/4
f 483/8/4 479/8/4 484/8/4
f 485/6/4 486/6/4 487/6/4
f 487/6/4 486/6/4 488/6/4
f 493/7/5 490/7/5 489/7/5
f 494/7/5 490/7/5 493/7/5
f 495/7/5 492/7/5 491/7/5
f 496/7/5 492/7/5 495/7/5
f 499/5/5 498/5/5 497/5/5
f 500/5/5 498/5/5 499/5/5
f 501/5/5 498/5/5 500/5/5
f 502/5/5 498/5/5 501/5/5
f 503/5/5 499/5/5 497/5/5
f 504/5/5 501/5/5 500/5/5
f 505/5/5 501/5/5 504/5/5
f 506/5/5 498/5/5 502/5/5
f 507/5/5 505/5/5 504/5/5
f 507/5/5 506/5/5 505/5/5
f 507/5/5 503/5/5 497/5/5
f 507/5/5 504/5/5 503/5/5
f 508/5/5 498/5/5 506/5/5
f 508/5/5 506/5/5 507/5/5
f 514/1/5 510/1/5 509/1/5
f 515/1/5 512/1/5 511/1/5
f 517/1/5 514/1/5 513/1/5
f 518/1/5 510/1/5 514/1/5
f 518/1/5 514/1/5 517/1/5
f 519/1/5 516/1/5 515/1/5
f 519/1/5 515/1/5 511/1/5
f 520/1/5 516/1/5 519/1/5
f 521/1/5 510/1/5 518/1/5
f 522/1/5 510/1/5 521/1/5
f 523/1/5 519/1/5 511/1/5
f 524/1/5 519/1/5 523/1/5
f 529/1/5 526/1/5 525/1/5
f 530/1/5 526/1/5 529/1/5
f 531/1/5 528/1/5 527/1/5
f 532/1/5 528/1/5 531/1/5
f 537/1/5 534/1/5 533/1/5
f 538/1/5 534/1/5 537/1/5
f 539/1/5 536/1/5 535/1/5
f 540/1/5 536/1/5 539/1/5
f 544/1/5 542/1/5 541/1/5
f 545/1/5 542/1/5 544/1/5
f 547/1/5 544/1/5 543/1/5
f 548/1/5 544/1/5 547/1/5
f 549/1/5 546/1/5 545/1/5
f 550/1/5 546/1/5 549/1/5
f 551/1/5 549/1/5 548/1/5
f 552/1/5 549/1/5 551/1/5
f 557/1/5 554/1/5 553/1/5
f 558/1/5 554/1/5 557/1/5
f 559/1/5 556/1/5 555/1/5
f 560/1/5 556/1/5 559/1/5
f 565/1/5 562/1/5 561/1/5
f 566/1/5 562/1/5 565/1/5
f 569/1/5 564/1/5 563/1/5
f 570/1/5 564/1/5 569/1/5
f 571/2/5 568/2/5 567/2/5
f 572/2/5 568/2/5 571/2/5
f 573/6/5 572/6/5 571/6/5
f 574/6/5 572/6/5 573/6/5
f 575/1/6 576/1/6 579/1/6
f 579/1/6 576/1/6 580/1/6
f 577/1/6 578/1/6 581/1/6
f 581/1/6 578/1/6 582/1/6
f 583/1/6 584/1/6 587/1/6
f 587/1/6 584/1/6 588/1/6
f 585/1/6 586/1/6 589/1/6
f 589/1/6 586/1/6 590/1/6
f 591/8/6 592/8/6 595/8/6
f 595/8/6 592/8/6 596/8/6
f 593/8/6 594/8/6 597/8/6
f 597/8/6 594/8/6 598/8/6
f 599/1/6 600/1/6 604/1/6
f 601/1/6 602/1/6 605/1/6
f 603/1/6 604/1/6 607/1/6
f 604/1/6 600/1/6 608/1/6
f 607/1/6 604/1/6 608/1/6
f 605/1/6 606/1/6 609/1/6
f 601/1/6 605/1/6 609/1/6
f 609/1/6 606/1/6 610/1/6
f 608/1/6 600/1/6 611/1/6
f 611/1/6 600/1/6 612/1/6
f 601/1/6 609/1/6 613/1/6
f 613/1/6 609/1/6 614/1/6
f 615/8/6 616/8/6 619/8/6
f 619/8/6 616/8/6 620/8/6
f 617/8/6 618/8/6 621/8/6
f 621/8/6 618/8/6 622/8/6
f 623/8/6 624/8/6 628/8/6
f 624/1/6 625/1/6 629/1/6
f 628/8/6 624/8/6 629/8/6
f 625/8/6 626/8/6 630/8/6
f 629/1/6 625/1/6 630/1/6
f 630/8/6 626/8/6 631/8/6
f 627/1/6 628/1/6 633/1/6
f 628/8/6 629/8/6 634/8/6
f 633/1/6 628/1/6 634/1/6
f 634/8/6 629/8/6 635/8/6
f 630/8/6 631/8/6 636/8/6
f 631/1/6 632/1/6 637/1/6
f 636/8/6 631/8/6 637/8/6
f 637/1/6 632/1/6 638/1/6
f 634/8/6 635/8/6 639/8/6
f 635/1/6 636/1/6 640/1/6
f 639/8/6 635/8/6 640/8/6
f 636/8/6 637/8/6 641/8/6
f 640/1/6 636/1/6 641/1/6
f 641/8/6 637/8/6 642/8/6
f 643/2/6 644/2/6 645/2/6
f 645/2/6 644/2/6 646/2/6
f 645/6/6 646/6/6 647/6/6
f 647/6/6 646/6/6 648/6/6
f 649/1/6 650/1/6 653/1/6
f 653/1/6 650/1/6 654/1/6
f 651/1/6 652/1/6 655/1/6
f 655/1/6 652/1/6 656/1/6
f 657/1/6 658/1/6 661/1/6
f 661/1/6 658/1/6 662/1/6
f 659/1/6 660/1/6 663/1/6
f 663/1/6 660/1/6 664/1/6
f 665/1/6 666/1/6 668/1/6
f 668/1/6 666/1/6 669/1/6
f 667/1/6 668/1/6 671/1/6
f 669/1/6 670/1/6 671/1/6
f 668/1/6 669/1/6 671/1/6
f 671/1/6 670/1/6 672/1/6
f 672/1/6 670/1/6 673/1/6
f 673/1/6 670/1/6 674/1/6
f 672/1/6 673/1/6 675/1/6
f 675/1/6 673/1/6 676/1/6
